<svg width="584" height="166" viewBox="0 0 584 166" fill="none" xmlns="http://www.w3.org/2000/svg">
<path d="M126.689 58.8202C126.689 58.8202 126.689 58.9401 126.669 59.1501H58.2491L3.53906 0.910156H73.7491C73.7491 0.910156 126.839 2.84016 126.689 58.8202Z" fill="#5C49F7"/>
<path d="M126.67 59.1602C126.5 64.0602 121.5 119.83 58.25 115.68V59.1602H126.67Z" fill="#2F248B"/>
<path d="M0.439453 116.98V165.32H58.2495V59.1602C26.3295 59.1602 0.439453 85.0502 0.439453 116.98Z" fill="#A19CFF"/>
<path d="M189.609 42.79C206.999 42.79 221.209 56.88 221.209 74.39C221.209 91.9 206.999 105.99 189.609 105.99C181.399 105.99 174.789 102.56 170.249 97.17V129.51H158.119V74.39C158.119 56.87 172.209 42.79 189.599 42.79H189.609ZM209.209 74.4C209.209 63.25 200.879 54.43 189.609 54.43C178.339 54.43 170.009 63.25 170.009 74.4C170.009 85.55 178.579 94.37 189.609 94.37C200.639 94.37 209.209 85.55 209.209 74.4Z" fill="#2F248B"/>
<path d="M227.949 73.0503C227.949 52.7203 238.849 43.5303 253.669 43.5303H254.889V55.1703H253.669C245.089 55.1703 239.949 60.6803 239.949 73.0503V105.02H227.949V73.0503Z" fill="#2F248B"/>
<path d="M257.959 74.3998C257.959 56.8798 272.169 42.7998 289.559 42.7998C306.949 42.7998 321.039 56.8898 321.039 74.3998V105.02H309.039V95.3398C306.099 101.34 298.259 106 289.559 106C272.169 106 257.959 91.9098 257.959 74.3998ZM309.169 74.3998C309.169 63.2498 300.959 54.4298 289.689 54.4298C278.419 54.4298 269.969 63.2498 269.969 74.3998C269.969 85.5498 278.539 94.3698 289.689 94.3698C300.839 94.3698 309.169 85.5498 309.169 74.3998Z" fill="#2F248B"/>
<path d="M327.789 74.3998C327.789 56.8798 341.879 42.7998 359.389 42.7998C372.859 42.7998 384.259 51.2498 388.539 63.0098H375.679C372.249 57.8598 366.489 54.4398 359.509 54.4398C348.239 54.4398 339.789 63.2598 339.789 74.4098C339.789 85.5598 348.359 94.3798 359.509 94.3798C366.369 94.3798 372.009 91.0698 375.429 86.0498H388.539C384.129 97.8098 372.739 106.02 359.389 106.02C341.869 106.02 327.789 91.9298 327.789 74.4198V74.3998Z" fill="#2F248B"/>
<path d="M413.529 55.4099V75.9898C413.529 87.6298 418.059 93.0198 426.759 93.7498V105.39C412.059 104.78 401.649 95.8298 401.529 76.1098V55.4099H392.469V43.7698H401.529V21.8398H413.529V43.7698H426.759V55.4099H413.529Z" fill="#2F248B"/>
<path d="M432.52 27.9701C432.52 23.8001 435.71 20.6201 439.87 20.6201C444.03 20.6201 447.099 23.8101 447.099 27.9701C447.099 32.1301 443.92 35.3201 439.87 35.3201C435.82 35.3201 432.52 32.1301 432.52 27.9701ZM433.87 43.7701H445.87V105.02H433.87V43.7701Z" fill="#2F248B"/>
<path d="M453.83 74.3998C453.83 56.8798 467.92 42.7998 485.43 42.7998C498.9 42.7998 510.3 51.2498 514.58 63.0098H501.72C498.29 57.8598 492.53 54.4398 485.55 54.4398C474.28 54.4398 465.83 63.2598 465.83 74.4098C465.83 85.5598 474.4 94.3798 485.55 94.3798C492.41 94.3798 498.05 91.0698 501.47 86.0498H514.58C510.17 97.8098 498.78 106.02 485.43 106.02C467.91 106.02 453.83 91.9298 453.83 74.4198V74.3998Z" fill="#2F248B"/>
<path d="M551.948 42.79C567.748 42.79 582.938 54.31 583.548 73.29C583.548 75.37 583.428 77.21 583.178 78.8H533.688C534.668 87.86 542.018 94.36 551.938 94.36C558.678 94.36 563.448 91.67 566.638 88.24L580.968 88.36C575.698 98.89 564.678 106 552.298 106C534.658 106 520.818 91.91 520.818 74.52C520.818 57.13 534.288 42.79 551.928 42.79H551.948ZM570.688 69.01C568.478 60.68 561.138 54.43 552.308 54.43C542.758 54.43 535.898 60.68 533.688 69.01H570.678H570.688Z" fill="#2F248B"/>
</svg>
